# xmcd CD database file
#
# Track frame offsets:
#	150
#	41614
#	62204
#	84645
#	106131
#	128130
#	149846
#	177362
#	199592
#	224514
#	251274
#	273922
#
# Disc length: 3967 seconds
#
# Revision: 3
# Processed by: cddbd v1.5.1PL0 Copyright (c) Steve Scherf et al.
# Submitted via: CDex 1.40Release
#
DISCID=b40f7d0c
DTITLE=Lo Mejor De La Salsa - Varios
DYEAR=1997
DGENRE=Salsa
TTITLE0=Lo Mejor De La Salsa - Lo Mejor De La Salsa -Megamix-
TTITLE1=Frankie Ruiz/ Mi Fórmula De Amor
TTITLE2=Edgar Joel/ Si Tuviera Tus Ojos
TTITLE3=Jerry Rivera/ Me Estoy Enloqueciendo
TTITLE4=Rey Ruiz - Estamos Solos
TTITLE5=Luis Enrique/ Quién Eres Tu
TTITLE6=India and Marc Anthony - Vivir Lo Nuestro
TTITLE7=Frankie Ruiz/ Tu Me Vuelves Loco
TTITLE8=Harold Acevedo/ Estoy Aquí
TTITLE9=Grupo Niche/ Gotas de lluvia
TTITLE10=Tony Vega/ Si me miras a los ojos
TTITLE11=Gilberto Santa Rosa/ Sueños Son
EXTD=YEAR: 1997
EXTT0=
EXTT1=
EXTT2=
EXTT3=
EXTT4=
EXTT5=
EXTT6=
EXTT7=
EXTT8=
EXTT9=
EXTT10=
EXTT11=
PLAYORDER=
